<svg xmlns="http://www.w3.org/2000/svg" version="1.1" xmlns:xlink="http://www.w3.org/1999/xlink" width="282" height="400"><svg xmlns="http://www.w3.org/2000/svg" width="282" height="400" viewBox="0 0 282 400" fill="white">
  <defs>
    <filter id="SvgjsFilter1001" x="-20%" y="-20%" width="140%" height="140%" filterUnits="objectBoundingBox">
  <feGaussianBlur in="SourceAlpha" stdDeviation="3" result="blur"></feGaussianBlur>
  <feOffset in="blur" dx="5" dy="5" result="offsetBlur"></feOffset>
  <feFlood flood-color="#000000" flood-opacity="0.10"></feFlood>
  <feComposite in2="offsetBlur" operator="in" result="shadow"></feComposite>
  <feMerge>
    <feMergeNode in="shadow"></feMergeNode>
    <feMergeNode in="SourceGraphic"></feMergeNode>
  </feMerge>
</filter>
  </defs>
<path d="M34 10
     H248
     A24 24 0 0 1 272 34
     V366
     A24 24 0 0 1 248 390
     H34
     A24 24 0 0 1 10 366
     V34
     A24 24 0 0 1 34 10
     Z" fill="white" filter="url(#dropShadow)"></path>
<path d="M 120 80 L 50 80 L 50 210 L 180 210 L 180 160" stroke="#1E5378" stroke-width="15" stroke-linecap="round" stroke-linejoin="round"></path>

<line x1="180" y1="50" x2="180" y2="110" stroke="#1E5378" stroke-width="15" stroke-linecap="round"></line>
<line x1="150" y1="60" x2="210" y2="100" stroke="#1E5378" stroke-width="15" stroke-linecap="round"></line>
<line x1="150" y1="100" x2="210" y2="60" stroke="#1E5378" stroke-width="15" stroke-linecap="round"></line>

<line x1="50" y1="250" x2="222" y2="250" stroke="#D6D4D6" stroke-width="15" stroke-linecap="round"></line>
<line x1="50" y1="280" x2="162" y2="280" stroke="#D6D4D6" stroke-width="15" stroke-linecap="round"></line>
<line x1="50" y1="310" x2="222" y2="310" stroke="#D6D4D6" stroke-width="15" stroke-linecap="round"></line>
  <line x1="50" y1="340" x2="222" y2="340" stroke="#D6D4D6" stroke-width="15" stroke-linecap="round"></line>
</svg><style>@media (prefers-color-scheme: light) { :root { filter: none; } }
@media (prefers-color-scheme: dark) { :root { filter: none; } }
</style></svg>